<?xml version="1.0" encoding="UTF-8" standalone="no"?>
<svg width="2002px" height="1416px" viewBox="0 0 2002 1416" version="1.1" xmlns="http://www.w3.org/2000/svg" xmlns:xlink="http://www.w3.org/1999/xlink" xmlns:sketch="http://www.bohemiancoding.com/sketch/ns">
    <title>mad_haskell</title>
    <description>Created with Sketch (http://www.bohemiancoding.com/sketch)</description>
    <defs></defs>
    <g id="Page-1" stroke="none" stroke-width="1" fill="none" fill-rule="evenodd" sketch:type="MSPage">
        <rect id="Rectangle-1" stroke="#000000" stroke-linecap="square" fill="#66CCFF" sketch:type="MSShapeGroup" x="1" y="1" width="2000" height="1414"></rect>
        <g id="haskell" sketch:type="MSLayerGroup" transform="translate(1.000000, 1.000000)" stroke-linecap="square" fill="#FFFFFF">
            <path d="M0.033378848,0.856873382 L354.225833,0.856873382 L822.299495,706.217676 L355.513336,1409.8208 L3.54548622,1409.8208 L470.390562,706.742593 L0.033378848,0.856873382 Z" id="Path-4" sketch:type="MSShapeGroup"></path>
            <path d="M471.726714,0.260377123 L823.927323,0.260377123 L1764.19095,1411.00584 L1412.54241,1411.00584 L1118.53544,971.738044 L825.21835,1414.37008 L472.629845,1414.37008 L944.82778,708.118511 L471.726714,0.260377123 Z" id="Path-5" sketch:type="MSShapeGroup"></path>
            <path d="M1218.4764,413.465266 L2000.25111,413.465266 L2000.25111,647.390668 L1373.37249,647.390668 L1218.4764,413.465266 Z" id="Path-6" sketch:type="MSShapeGroup"></path>
            <path d="M1999.68767,766.360406 L1455.02711,766.360406 L1606.80342,1002.07187 L1999.45737,1002.07187 L1999.68767,766.360406 Z" id="Path-7" sketch:type="MSShapeGroup"></path>
        </g>
        <g id="madison_center" sketch:type="MSLayerGroup" transform="translate(1001.000000, 579.322860)" stroke-linecap="square">
            <path d="M126.469399,257.216005 L171.419735,212.267029 L171.419735,174.254088 L209.981544,174.254088 L254.760774,129.474859 L209.868826,84.5829105 L172.183348,84.5829105 L172.183348,46.1204027 L126.403309,0.340364146 L81.1401569,45.6035164 L81.1401569,84.7549433 L44.4760133,84.7549433 L0.217562674,129.013394 L41.8928483,174.254089 L81.6857696,174.254089 L81.6857696,212.267024 L126.469399,257.216005 Z" id="Path-1" fill="#000000" sketch:type="MSShapeGroup"></path>
            <path d="M46.0376108,105.347937 L81.0048779,104.862319 L81.0048779,112.877712 L29.2720467,112.877712 L29.2720467,124.654341 L77.7689846,124.654341 L77.7689846,132.662495 L29.8066629,132.662495 L29.8066629,144.934703 L82.0564874,144.934703 L82.0564874,152.575153 L45.7405958,152.575153 L45.7405958,166.062226 L90.2443463,166.062226 L90.2443463,209.994133 L102.119691,209.994133 L102.119691,173.913764 L110.491492,173.913764 L110.491492,225.483475 L122.041797,225.483475 L122.041797,178.133865 L130.571577,178.133865 L130.571577,226.633424 L143.021378,226.633424 L143.021378,174.0691 L150.551537,174.0691 L150.551537,210.025309 L162.972767,210.025309 L162.972767,165.237684 L207.556013,165.237684 L207.556013,154.308368 L171.378458,154.308368 L171.378458,145.315575 L224.172723,145.315575 L224.172723,132.896256 L175.381765,132.896256 L175.381765,124.818567 L223.817177,124.818567 L223.817177,112.551083 L171.215998,112.551083 L171.215998,105.41188 L207.183864,105.41188 L207.183864,92.3546223 L162.792571,92.3546223 L162.792571,47.734015 L150.794102,47.734015 L150.794102,83.7390729 L142.499659,83.7390729 L142.499659,31.5036176 L130.126393,31.5036176 L130.126393,79.8156154 L123.003604,79.8156154 L123.003604,32.0970612 L109.778036,32.0970612 L109.778036,84.1950255 L101.565852,84.1950255 L101.565852,47.4238695 L89.5788004,47.4238695 L89.5788004,91.9288873 L45.1555393,91.9288873 L46.0376108,105.347937 Z" id="Path-2" fill="#FFCF00" sketch:type="MSShapeGroup"></path>
            <path d="M126.48378,166.695386 C147.076892,166.695386 163.770906,150.001372 163.770906,129.40826 C163.770906,108.815148 147.076892,92.1211343 126.48378,92.1211343 C105.890668,92.1211343 89.1966539,108.815148 89.1966539,129.40826 C89.1966539,150.001372 105.890668,166.695386 126.48378,166.695386 Z" id="Oval-1" fill="#000000" sketch:type="MSShapeGroup"></path>
        </g>
    </g>
</svg>
