<?xml version="1.0" encoding="UTF-8" standalone="no"?>
<svg width="953px" height="498px" viewBox="0 0 953 498" version="1.1" xmlns="http://www.w3.org/2000/svg" xmlns:xlink="http://www.w3.org/1999/xlink" xmlns:sketch="http://www.bohemiancoding.com/sketch/ns">
    <title>quadratic 1</title>
    <description>Created with Sketch (http://www.bohemiancoding.com/sketch)</description>
    <defs></defs>
    <g id="Page-1" stroke="none" stroke-width="1" fill="none" fill-rule="evenodd" sketch:type="MSPage">
        <g id="Rectangle-7-+-quadratic" sketch:type="MSLayerGroup" transform="translate(10.000000, 8.000000)">
            <rect d="M0,0 L0,475 L927,475 L927,0 L0,0 Z M0,0" id="Rectangle-7" stroke="#CACACA" fill="#FFFFFF" sketch:type="MSShapeGroup" x="0" y="0" width="927" height="475"></rect>
            <g id="quadratic" transform="translate(36.000000, 36.000000)">
                <g id="Page-1">
                    <g id="Rectangle-1-+-Rectangle-1" transform="translate(0.000000, 31.000000)" stroke="#979797" sketch:type="MSShapeGroup">
                        <rect d="M0,0 L0,300 L300,300 L300,0 L0,0 Z M0,0" id="Rectangle-1" fill="#2D7DDC" x="0" y="0" width="300" height="300"></rect>
                        <rect d="M311,1 L311,301 L411,301 L411,1 L311,1 Z M311,1" id="Rectangle-1" fill="#1E2C93" x="311" y="1" width="100" height="300"></rect>
                    </g>
                    <g id="Group" transform="translate(490.000000, 0.000000)" stroke="#979797" sketch:type="MSShapeGroup">
                        <rect d="M0,0 L0,300 L300,300 L300,0 L0,0 Z M0,0" id="Rectangle-1" fill="#2D7DDC" x="0" y="0" width="300" height="300"></rect>
                        <rect d="M311,1 L311,301 L361,301 L361,1 L311,1 Z M311,1" id="Rectangle-1" fill="#1E2C93" x="311" y="1" width="50" height="300"></rect>
                        <rect d="M311,313 L311,363 L361,363 L361,313 L311,313 Z M311,313" id="Rectangle-1" fill="#F89614" x="311" y="313" width="50" height="50"></rect>
                        <rect d="M0,313 L0,363 L300,363 L300,313 L0,313 Z M0,313" id="Rectangle-1" fill="#1E2C93" x="0" y="313" width="300" height="50"></rect>
                    </g>
                    <text id="x" fill="#000000" sketch:type="MSTextLayer" font-family="Helvetica" font-size="48" font-weight="normal">
                        <tspan x="134" y="403">x</tspan>
                    </text>
                    <text id="x" fill="#000000" sketch:type="MSTextLayer" font-family="Helvetica" font-size="48" font-weight="normal">
                        <tspan x="638" y="403">x</tspan>
                    </text>
                    <text id="b" fill="#000000" sketch:type="MSTextLayer" font-family="Helvetica" font-size="48" font-weight="normal">
                        <tspan x="351" y="403">b</tspan>
                    </text>
                    <text id="b/2" fill="#000000" sketch:type="MSTextLayer" font-family="Helvetica" font-size="36" font-weight="normal">
                        <tspan x="800" y="403">b/2</tspan>
                    </text>
                </g>
            </g>
        </g>
    </g>
</svg>